<?xml version="1.0" standalone="no"?>
<!DOCTYPE svg PUBLIC "-//W3C//DTD SVG 20010904//EN"
 "http://www.w3.org/TR/2001/REC-SVG-20010904/DTD/svg10.dtd">
<svg version="1.0" xmlns="http://www.w3.org/2000/svg"
 width="1181.000000pt" height="1181.000000pt" viewBox="0 0 1181.000000 1181.000000"
 preserveAspectRatio="xMidYMid meet">
<metadata>
Created by potrace 1.14, written by Peter Selinger 2001-2017
</metadata>
<g transform="translate(0.000000,1181.000000) scale(0.100000,-0.100000)"
fill="#000000" stroke="none">
<path d="M5857 9254 c-1 -1 -45 -5 -97 -8 -52 -4 -113 -9 -135 -11 -123 -15
-179 -23 -215 -31 -14 -3 -36 -8 -50 -10 -61 -10 -136 -29 -280 -71 -749 -215
-1406 -716 -1830 -1393 -110 -176 -219 -404 -297 -620 -63 -177 -134 -467
-149 -610 -2 -25 -6 -55 -8 -66 -24 -133 -25 -540 -1 -724 2 -19 7 -55 10 -80
5 -39 13 -92 29 -180 2 -14 12 -56 21 -95 9 -38 19 -81 21 -94 20 -99 188
-542 213 -561 4 -3 29 -34 55 -69 69 -90 103 -121 196 -182 l82 -53 -38 -11
c-57 -16 -54 -36 10 -68 66 -34 93 -67 176 -212 34 -60 67 -113 73 -117 7 -4
40 -8 75 -8 62 0 62 0 49 23 -8 12 -40 70 -71 129 l-56 107 37 -25 c111 -76
200 -97 291 -67 67 21 192 81 192 92 0 5 13 14 30 21 31 13 44 37 35 62 -17
45 -212 52 -480 18 l-165 -21 -42 35 c-24 19 -52 45 -62 58 -11 13 -49 57 -85
98 -121 138 -175 225 -256 415 -120 280 -196 586 -224 900 -9 101 -7 438 3
530 4 33 14 103 22 155 8 52 17 106 19 120 1 14 17 84 35 155 243 988 968
1797 1935 2156 188 69 464 140 610 155 28 3 56 7 64 10 73 24 714 24 784 -1 7
-3 28 -6 47 -9 138 -16 421 -85 570 -139 580 -210 1069 -564 1430 -1037 314
-412 521 -895 595 -1385 9 -60 18 -121 20 -134 9 -51 19 -263 19 -376 0 -113
-6 -217 -20 -345 -7 -70 -51 -301 -68 -360 -8 -25 -14 -47 -14 -50 -1 -28 -65
-226 -88 -271 -39 -77 -269 -237 -559 -389 -373 -195 -733 -295 -928 -257
-151 29 -297 119 -297 183 0 9 38 67 84 128 90 120 154 242 182 346 26 96 23
263 -5 365 -87 317 -341 572 -637 641 -172 40 -324 1 -439 -112 -229 -226
-176 -690 115 -1007 148 -162 311 -235 534 -240 47 -1 86 -5 86 -8 0 -14 -38
-38 -75 -48 -114 -32 -232 -21 -344 31 -188 88 -334 234 -435 434 -84 168
-103 251 -102 437 1 69 -2 123 -7 120 -28 -17 -78 -165 -91 -272 -3 -24 -8
-46 -11 -49 -5 -6 -7 15 -9 133 -4 142 45 270 144 377 33 36 60 73 60 81 0 8
-25 48 -55 90 -69 96 -120 187 -202 357 -112 231 -193 451 -193 520 1 58 36
105 151 203 122 102 125 105 185 188 137 188 136 423 -2 689 -112 215 -287
352 -503 396 -139 27 -223 5 -328 -91 -73 -65 -91 -96 -125 -215 -16 -59 -18
-210 -3 -280 68 -323 280 -569 573 -664 28 -10 52 -22 52 -27 0 -15 -190 -3
-238 14 -139 52 -309 224 -393 398 -58 119 -87 261 -84 407 1 48 0 93 -3 100
-11 29 -107 -136 -145 -248 -52 -155 -55 -373 -8 -600 43 -209 190 -656 281
-855 5 -11 32 -72 61 -135 86 -192 246 -506 348 -680 315 -539 503 -790 701
-937 75 -56 125 -80 244 -116 129 -40 215 -41 339 -7 87 24 89 24 120 6 212
-124 401 -180 602 -180 61 0 128 4 150 8 162 30 552 172 799 291 233 113 418
247 496 360 62 90 175 510 206 767 3 29 8 67 11 83 11 71 10 488 -3 605 -16
161 -24 221 -29 240 -3 8 -7 33 -10 55 -9 60 -52 239 -81 335 -90 301 -217
572 -392 839 -151 230 -409 522 -602 682 -454 378 -946 610 -1515 715 -22 4
-42 8 -45 9 -3 1 -36 5 -75 9 -38 5 -78 10 -87 12 -58 10 -472 26 -481 18z
m-1752 -4954 c-3 -4 -35 -13 -72 -20 -92 -16 -157 -37 -187 -61 -16 -13 -33
-18 -45 -14 -11 3 -28 7 -38 9 -10 2 -45 17 -78 32 l-60 29 40 6 c161 28 453
40 440 19z"/>
<path d="M8383 4414 c-3 -10 -1 -31 7 -48 7 -17 21 -84 33 -148 20 -117 20
-118 56 -139 66 -39 149 -8 170 62 17 56 14 174 -5 193 -8 9 -17 16 -18 16 -2
0 -3 -26 -4 -59 0 -33 -7 -71 -16 -87 l-15 -29 -1 33 c0 57 -21 120 -48 147
-26 26 -118 75 -141 75 -6 0 -14 -7 -18 -16z m150 -162 c8 -9 16 -26 17 -37 5
-47 1 -53 -39 -57 -44 -4 -41 -10 -57 105 l-6 48 34 -21 c20 -11 42 -28 51
-38z"/>
<path d="M8221 4133 c-34 -39 -43 -45 -51 -33 -16 25 -33 -4 -32 -55 1 -77 23
-113 65 -106 4 0 7 -12 7 -28 0 -27 21 -57 32 -46 5 6 3 46 -7 100 -3 22 2 38
19 60 l24 30 7 -40 c12 -70 25 -101 54 -129 35 -34 71 -32 88 4 18 38 24 167
9 179 -16 14 -26 4 -26 -25 0 -35 -21 -74 -41 -74 -22 0 -29 20 -39 105 -6 53
-13 73 -30 87 -12 10 -26 18 -30 18 -5 0 -27 -21 -49 -47z"/>
<path d="M8002 4118 c-7 -7 -12 -28 -12 -48 0 -56 38 -80 66 -42 18 23 17 53
-2 80 -17 25 -34 28 -52 10z"/>
<path d="M3985 4021 c-145 -35 -196 -188 -79 -237 57 -24 202 -14 212 14 2 8
-12 12 -47 12 -61 0 -128 25 -136 51 -9 26 12 61 33 55 102 -31 185 -33 230
-6 79 49 -2 121 -133 119 -27 -1 -63 -4 -80 -8z m164 -56 c9 -9 -12 -23 -45
-30 -47 -8 -120 3 -106 17 22 22 132 31 151 13z"/>
<path d="M8026 3961 c-39 -43 -42 -165 -5 -230 39 -70 114 -103 156 -69 17 13
43 102 43 144 0 65 -23 87 -34 32 -9 -47 -42 -98 -65 -98 -35 0 -44 24 -37
107 9 107 -18 159 -58 114z"/>
<path d="M4673 3784 c-133 -89 -219 -134 -259 -134 -28 0 -54 -35 -54 -72 0
-16 -3 -28 -7 -28 -11 0 -105 -89 -131 -124 -31 -41 -46 -100 -31 -127 10 -19
17 -21 58 -16 89 11 182 66 222 131 15 25 29 32 73 41 l55 11 -6 -25 c-11 -43
-6 -81 13 -102 25 -27 92 -22 160 12 68 34 70 52 6 43 -75 -10 -102 0 -102 35
0 26 7 32 66 57 37 15 77 36 90 47 27 21 31 52 8 61 -44 17 -105 -3 -177 -58
-33 -25 -59 -36 -101 -41 -55 -7 -56 -7 -56 18 0 14 -4 37 -9 50 -9 23 -3 28
136 108 145 84 213 141 213 179 0 36 -37 22 -167 -66z m-268 -298 l26 -24 -33
-42 c-36 -47 -71 -75 -105 -85 -20 -5 -23 -3 -23 20 0 36 15 62 63 113 23 23
42 42 44 42 1 0 14 -11 28 -24z"/>
<path d="M7847 3823 c-21 -40 -54 -149 -68 -217 -7 -41 -14 -55 -21 -48 -8 8
-7 34 1 88 14 82 8 101 -27 90 -32 -10 -50 -94 -43 -192 2 -28 68 -104 92
-104 20 0 23 9 38 106 5 33 15 81 22 105 l13 44 6 -76 c9 -113 52 -157 97
-100 19 23 63 170 56 187 -9 24 -20 16 -37 -30 -22 -56 -39 -72 -56 -51 -12
15 -10 72 6 152 5 24 1 36 -15 52 -28 28 -48 26 -64 -6z"/>
<path d="M5167 3685 c-114 -40 -300 -208 -342 -309 -20 -47 -19 -120 1 -140 8
-9 32 -16 53 -16 62 0 191 73 169 95 -2 3 -28 -4 -56 -15 -67 -26 -80 -25 -94
5 -18 40 6 82 66 112 119 59 233 159 262 230 23 54 9 63 -59 38z m-17 -75 c0
-25 -165 -158 -179 -145 -11 12 147 154 172 155 4 0 7 -5 7 -10z"/>
<path d="M4883 3666 c-23 -20 -26 -28 -17 -43 18 -29 60 -28 89 1 21 21 24 29
15 46 -15 27 -53 25 -87 -4z"/>
<path d="M7500 3658 c-18 -18 -46 -61 -62 -95 -37 -79 -39 -145 -7 -203 68
-121 182 -72 239 103 6 21 9 46 5 55 -5 14 -9 12 -22 -13 -47 -93 -95 -135
-132 -115 -33 17 -31 37 5 76 41 45 84 128 84 162 0 68 -55 83 -110 30z m50
-49 c0 -28 -24 -89 -46 -115 l-23 -29 -1 33 c0 44 39 122 61 122 5 0 9 -5 9
-11z"/>
<path d="M5627 3596 c-6 -15 36 -111 60 -138 20 -23 43 -12 43 21 0 39 -19 98
-36 116 -19 19 -60 20 -67 1z"/>
<path d="M7295 3536 c-27 -40 -44 -97 -45 -144 0 -45 -27 -109 -55 -132 -37
-31 -47 46 -15 110 29 58 37 125 15 133 -44 18 -93 -60 -102 -163 -6 -62 7
-99 49 -137 49 -45 85 -31 127 47 22 41 38 60 51 60 26 0 80 48 80 71 0 22
-18 26 -26 5 -6 -16 -32 -29 -44 -21 -4 2 -2 28 5 58 14 62 12 105 -9 125 -12
12 -16 11 -31 -12z"/>
<path d="M6983 3482 c-6 -4 -30 -43 -54 -87 -52 -98 -128 -205 -146 -205 -15
0 -18 56 -3 65 17 10 80 125 80 146 0 14 -7 19 -29 19 -36 0 -54 -17 -85 -79
-40 -80 -48 -115 -37 -159 12 -44 52 -92 76 -92 23 0 59 42 88 103 l26 52 -2
-58 c-1 -42 3 -61 13 -67 39 -25 70 -2 136 95 53 78 44 101 -16 40 -71 -74
-82 -32 -28 111 24 67 28 86 19 103 -13 22 -19 25 -38 13z"/>
<path d="M6252 3393 c-7 -3 -21 -22 -30 -42 -10 -21 -50 -75 -88 -121 -72 -87
-76 -101 -53 -162 6 -15 29 -36 54 -49 41 -22 44 -22 86 -6 60 23 149 105 149
136 l0 25 -27 -25 c-45 -40 -59 -49 -94 -59 l-33 -10 41 43 c51 53 63 76 63
124 -1 40 -19 119 -33 141 -9 13 -14 14 -35 5z m-22 -140 c1 -10 3 -34 6 -53
4 -27 0 -43 -16 -63 -20 -25 -50 -37 -50 -19 0 4 -11 14 -25 23 l-26 15 48 56
c51 61 63 68 63 41z"/>
<path d="M5592 3376 c-68 -17 -172 -70 -211 -108 -47 -46 -53 -117 -15 -175
21 -33 50 -28 108 15 76 57 77 57 61 18 -31 -74 -11 -112 49 -95 47 14 156 91
156 111 0 17 -3 17 -37 -2 -94 -50 -125 -4 -52 75 35 38 41 50 36 75 -5 22 -3
30 8 30 22 0 19 47 -4 60 -24 12 -31 12 -99 -4z m-15 -132 c-66 -62 -154 -111
-170 -95 -16 16 10 65 45 86 32 19 155 65 173 64 6 0 -16 -24 -48 -55z"/>
<path d="M6525 3373 c-67 -35 -127 -114 -140 -184 -7 -38 12 -98 41 -131 40
-43 122 -23 154 37 7 14 21 25 31 25 25 0 79 48 79 71 0 24 -5 24 -30 -1 -25
-25 -45 -17 -29 12 16 30 15 119 -2 132 -8 6 -15 18 -17 26 -8 32 -41 38 -87
13z m24 -112 c-7 -18 -9 -53 -5 -79 6 -45 5 -49 -24 -65 -18 -11 -38 -16 -51
-12 -19 6 -20 12 -14 53 4 26 14 56 23 67 21 25 76 74 80 71 1 -2 -3 -17 -9
-35z"/>
</g>
</svg>
